<svg width="32" height="32" viewBox="0 0 24 24" fill="none" xmlns="http://www.w3.org/2000/svg">
<path d="M11.9999 19.7841C16.2989 19.7841 19.784 16.2991 19.784 12C19.784 7.701 16.2989 4.21594 11.9999 4.21594C7.70088 4.21594 4.21582 7.701 4.21582 12C4.21582 16.2991 7.70088 19.7841 11.9999 19.7841Z" stroke="#fff" stroke-width="1.2" stroke-linecap="round" stroke-linejoin="round"/>
<path d="M12 12.9446C12.5217 12.9446 12.9446 12.5217 12.9446 12C12.9446 11.4783 12.5217 11.0554 12 11.0554C11.4783 11.0554 11.0554 11.4783 11.0554 12C11.0554 12.5217 11.4783 12.9446 12 12.9446Z" stroke="#fff" stroke-width="1.2" stroke-linecap="round" stroke-linejoin="round"/>
<path d="M2 12H6.43537" stroke="#fff" stroke-width="1.2" stroke-linecap="round" stroke-linejoin="round"/>
<path d="M17.5647 12H22.0001" stroke="#fff" stroke-width="1.2" stroke-linecap="round" stroke-linejoin="round"/>
<path d="M12 22.0001V17.5647" stroke="#fff" stroke-width="1.2" stroke-linecap="round" stroke-linejoin="round"/>
<path d="M12 6.43537V2" stroke="#fff" stroke-width="1.2" stroke-linecap="round" stroke-linejoin="round"/>
</svg>
