<svg width="27" height="27" viewBox="0 0 27 27" fill="none" xmlns="http://www.w3.org/2000/svg">
<path d="M13.5 13.5C16.6066 13.5 19.125 10.9816 19.125 7.875C19.125 4.7684 16.6066 2.25 13.5 2.25C10.3934 2.25 7.875 4.7684 7.875 7.875C7.875 10.9816 10.3934 13.5 13.5 13.5Z" stroke="white" stroke-width="2"/>
<path d="M19.1251 15.75H19.5211C20.3435 15.7502 21.1376 16.0508 21.7541 16.5952C22.3706 17.1396 22.7671 17.8904 22.8691 18.7065L23.3089 22.221C23.3485 22.5376 23.3203 22.859 23.2261 23.1639C23.132 23.4687 22.9741 23.7501 22.7629 23.9893C22.5517 24.2284 22.2921 24.42 22.0012 24.5511C21.7103 24.6823 21.3949 24.7501 21.0758 24.75H5.92432C5.60525 24.7501 5.28981 24.6823 4.99894 24.5511C4.70808 24.42 4.44843 24.2284 4.23724 23.9893C4.02605 23.7501 3.86814 23.4687 3.774 23.1639C3.67985 22.859 3.65163 22.5376 3.69119 22.221L4.12994 18.7065C4.23198 17.89 4.62879 17.1389 5.24575 16.5944C5.86272 16.05 6.65734 15.7497 7.48019 15.75H7.87507" stroke="white" stroke-width="2" stroke-linecap="round" stroke-linejoin="round"/>
</svg>
